{
  "accessors": [
    {
      "bufferView": 2,
      "componentType": 5126,
      "count": 1022,
      "max": [
        2.259939432144165,
        6.863146781921387,
        0.6096668243408203
      ],
      "min": [
        -2.4832603931427,
        -1.9117138385772705,
        -2.0879030227661133
      ],
      "type": "VEC3"
    },
    {
      "bufferView": 2,
      "byteOffset": 12264,
      "componentType": 5126,
      "count": 1022,
      "max": [
        1.0,
        0.9999691247940063,
        0.9999977946281433
      ],
      "min": [
        -1.0,
        -1.0,
        -1.0
      ],
      "type": "VEC3"
    },
    {
      "bufferView": 1,
      "componentType": 5125,
      "count": 3108,
      "type": "SCALAR"
    },
    {
      "bufferView": 2,
      "byteOffset": 24528,
      "componentType": 5126,
      "count": 8,
      "max": [
        1.8076695203781128,
        6.644556045532227,
        -0.7287431955337524
      ],
      "min": [
        -2.0309906005859375,
        6.019956588745117,
        -1.0233632326126099
      ],
      "type": "VEC3"
    },
    {
      "bufferView": 2,
      "byteOffset": 24624,
      "componentType": 5126,
      "count": 8,
      "max": [
        0.3770413100719452,
        0.8288328647613525,
        0.4133714437484741
      ],
      "min": [
        -0.3770413100719452,
        0.8288328647613525,
        0.4133714437484741
      ],
      "type": "VEC3"
    },
    {
      "bufferView": 1,
      "byteOffset": 12432,
      "componentType": 5125,
      "count": 12,
      "type": "SCALAR"
    },
    {
      "bufferView": 2,
      "byteOffset": 24720,
      "componentType": 5126,
      "count": 40,
      "max": [
        1.6088294982910156,
        6.712006568908691,
        -0.7100831270217896
      ],
      "min": [
        -1.8321504592895508,
        6.317656517028809,
        -1.7962332963943481
      ],
      "type": "VEC3"
    },
    {
      "bufferView": 2,
      "byteOffset": 25200,
      "componentType": 5126,
      "count": 40,
      "max": [
        0.14643022418022156,
        0.9978508353233337,
        0.4376106858253479
      ],
      "min": [
        -0.14643022418022156,
        0.887161374092102,
        -0.10068973898887634
      ],
      "type": "VEC3"
    },
    {
      "bufferView": 1,
      "byteOffset": 12480,
      "componentType": 5125,
      "count": 60,
      "type": "SCALAR"
    },
    {
      "bufferView": 2,
      "byteOffset": 25680,
      "componentType": 5126,
      "count": 50,
      "max": [
        2.259939432144165,
        4.205656051635742,
        0.5429068207740784
      ],
      "min": [
        -2.4832603931427,
        0.04116630554199219,
        -0.3742331564426422
      ],
      "type": "VEC3"
    },
    {
      "bufferView": 2,
      "byteOffset": 26280,
      "componentType": 5126,
      "count": 50,
      "max": [
        0.8601905107498169,
        0.38763055205345154,
        0.9225233793258667
      ],
      "min": [
        -0.8601905107498169,
        -0.9463081955909729,
        0.013369974680244923
      ],
      "type": "VEC3"
    },
    {
      "bufferView": 1,
      "byteOffset": 12720,
      "componentType": 5125,
      "count": 84,
      "type": "SCALAR"
    },
    {
      "bufferView": 2,
      "byteOffset": 26880,
      "componentType": 5126,
      "count": 768,
      "max": [
        1.906989574432373,
        6.013266563415527,
        -0.7708132266998291
      ],
      "min": [
        -2.130310535430908,
        -0.7346937656402588,
        -2.2579731941223145
      ],
      "type": "VEC3"
    },
    {
      "bufferView": 2,
      "byteOffset": 36096,
      "componentType": 5126,
      "count": 768,
      "max": [
        0.9736820459365845,
        0.9989396929740906,
        0.9989397525787354
      ],
      "min": [
        -0.9736819863319397,
        -0.9989396929740906,
        -0.9989392757415771
      ],
      "type": "VEC3"
    },
    {
      "bufferView": 1,
      "byteOffset": 13056,
      "componentType": 5125,
      "count": 2304,
      "type": "SCALAR"
    },
    {
      "bufferView": 2,
      "byteOffset": 45312,
      "componentType": 5126,
      "count": 5376,
      "max": [
        1.906989574432373,
        5.866415977478027,
        -0.9176532030105591
      ],
      "min": [
        -2.130310535430908,
        -0.587843656539917,
        -2.1111230850219727
      ],
      "type": "VEC3"
    },
    {
      "bufferView": 2,
      "byteOffset": 109824,
      "componentType": 5126,
      "count": 5376,
      "max": [
        1.0,
        1.0,
        1.0
      ],
      "min": [
        -1.0,
        -1.0,
        -1.0
      ],
      "type": "VEC3"
    },
    {
      "bufferView": 1,
      "byteOffset": 22272,
      "componentType": 5125,
      "count": 8400,
      "type": "SCALAR"
    },
    {
      "bufferView": 4,
      "componentType": 5126,
      "count": 2,
      "max": [
        1.0,
        0.0,
        0.0,
        0.0,
        0.0,
        1.0,
        0.0,
        0.0,
        0.0,
        0.8109400272369385,
        1.0,
        0.0,
        0.0,
        0.0,
        0.0,
        1.0
      ],
      "min": [
        0.8109400272369385,
        0.0,
        0.0,
        0.0,
        0.0,
        0.0,
        -0.8109400272369385,
        0.0,
        0.0,
        0.0,
        0.0,
        0.0,
        0.0,
        0.0,
        0.0,
        1.0
      ],
      "type": "MAT4"
    },
    {
      "bufferView": 0,
      "componentType": 5123,
      "count": 1022,
      "type": "VEC4"
    },
    {
      "bufferView": 3,
      "componentType": 5126,
      "count": 1022,
      "max": [
        1.0,
        0.0,
        0.0,
        0.0
      ],
      "min": [
        1.0,
        0.0,
        0.0,
        0.0
      ],
      "type": "VEC4"
    },
    {
      "bufferView": 0,
      "byteOffset": 8176,
      "componentType": 5123,
      "count": 8,
      "type": "VEC4"
    },
    {
      "bufferView": 3,
      "byteOffset": 16352,
      "componentType": 5126,
      "count": 8,
      "max": [
        1.0,
        0.0,
        0.0,
        0.0
      ],
      "min": [
        1.0,
        0.0,
        0.0,
        0.0
      ],
      "type": "VEC4"
    },
    {
      "bufferView": 0,
      "byteOffset": 8240,
      "componentType": 5123,
      "count": 40,
      "type": "VEC4"
    },
    {
      "bufferView": 3,
      "byteOffset": 16480,
      "componentType": 5126,
      "count": 40,
      "max": [
        1.0,
        0.0,
        0.0,
        0.0
      ],
      "min": [
        1.0,
        0.0,
        0.0,
        0.0
      ],
      "type": "VEC4"
    },
    {
      "bufferView": 0,
      "byteOffset": 8560,
      "componentType": 5123,
      "count": 50,
      "type": "VEC4"
    },
    {
      "bufferView": 3,
      "byteOffset": 17120,
      "componentType": 5126,
      "count": 50,
      "max": [
        1.0,
        0.0,
        0.0,
        0.0
      ],
      "min": [
        1.0,
        0.0,
        0.0,
        0.0
      ],
      "type": "VEC4"
    },
    {
      "bufferView": 0,
      "byteOffset": 8960,
      "componentType": 5123,
      "count": 768,
      "type": "VEC4"
    },
    {
      "bufferView": 3,
      "byteOffset": 17920,
      "componentType": 5126,
      "count": 768,
      "max": [
        1.0,
        0.0,
        0.0,
        0.0
      ],
      "min": [
        1.0,
        0.0,
        0.0,
        0.0
      ],
      "type": "VEC4"
    },
    {
      "bufferView": 0,
      "byteOffset": 15104,
      "componentType": 5123,
      "count": 5376,
      "type": "VEC4"
    },
    {
      "bufferView": 3,
      "byteOffset": 30208,
      "componentType": 5126,
      "count": 5376,
      "max": [
        1.0,
        0.0,
        0.0,
        0.0
      ],
      "min": [
        1.0,
        0.0,
        0.0,
        0.0
      ],
      "type": "VEC4"
    },
    {
      "bufferView": 5,
      "componentType": 5126,
      "count": 1,
      "max": [
        0.2916699945926666
      ],
      "min": [
        0.2916699945926666
      ],
      "type": "SCALAR"
    },
    {
      "bufferView": 7,
      "componentType": 5126,
      "count": 1,
      "max": [
        0.7071067690849304,
        0.0,
        0.0,
        0.7071067690849304
      ],
      "min": [
        0.7071067690849304,
        0.0,
        0.0,
        0.7071067690849304
      ],
      "type": "VEC4"
    },
    {
      "bufferView": 5,
      "byteOffset": 4,
      "componentType": 5126,
      "count": 1,
      "max": [
        0.2916699945926666
      ],
      "min": [
        0.2916699945926666
      ],
      "type": "SCALAR"
    },
    {
      "bufferView": 6,
      "componentType": 5126,
      "count": 1,
      "max": [
        2.6712799072265625,
        2.6712799072265625,
        2.6712799072265625
      ],
      "min": [
        2.6712799072265625,
        2.6712799072265625,
        2.6712799072265625
      ],
      "type": "VEC3"
    }
  ],
  "animations": [
    {
      "channels": [
        {
          "sampler": 0,
          "target": {
            "node": 17,
            "path": "rotation"
          }
        },
        {
          "sampler": 1,
          "target": {
            "node": 17,
            "path": "scale"
          }
        }
      ],
      "name": "Take 01",
      "samplers": [
        {
          "input": 31,
          "interpolation": "LINEAR",
          "output": 32
        },
        {
          "input": 33,
          "interpolation": "LINEAR",
          "output": 34
        }
      ]
    }
  ],
  "asset": {
    "extras": {
      "author": "Stretch edits (https://sketchfab.com/natcorsin)",
      "license": "CC-BY-4.0 (http://creativecommons.org/licenses/by/4.0/)",
      "source": "https://sketchfab.com/3d-models/low-poly-car-c0f840aaaa7f45ab9a7cb848f6e339e9",
      "title": "Low Poly Car"
    },
    "generator": "Sketchfab-12.68.0",
    "version": "2.0"
  },
  "bufferViews": [
    {
      "buffer": 0,
      "byteLength": 58112,
      "byteStride": 8,
      "name": "shortBufferViews",
      "target": 34962
    },
    {
      "buffer": 0,
      "byteLength": 55872,
      "byteOffset": 58112,
      "name": "floatBufferViews",
      "target": 34963
    },
    {
      "buffer": 0,
      "byteLength": 174336,
      "byteOffset": 113984,
      "byteStride": 12,
      "name": "floatBufferViews",
      "target": 34962
    },
    {
      "buffer": 0,
      "byteLength": 116224,
      "byteOffset": 288320,
      "byteStride": 16,
      "name": "floatBufferViews",
      "target": 34962
    },
    {
      "buffer": 0,
      "byteLength": 128,
      "byteOffset": 404544,
      "name": "floatBufferViews"
    },
    {
      "buffer": 0,
      "byteLength": 8,
      "byteOffset": 404672,
      "name": "floatBufferViews"
    },
    {
      "buffer": 0,
      "byteLength": 12,
      "byteOffset": 404680,
      "byteStride": 12,
      "name": "floatBufferViews"
    },
    {
      "buffer": 0,
      "byteLength": 16,
      "byteOffset": 404692,
      "byteStride": 16,
      "name": "floatBufferViews"
    }
  ],
  "buffers": [
    {
      "byteLength": 404708,
      "uri": "scene.bin"
    }
  ],
  "materials": [
    {
      "doubleSided": true,
      "name": "Material.016",
      "pbrMetallicRoughness": {
        "baseColorFactor": [
          0.8000000715255737,
          0.002575190272182226,
          0.0,
          1.0
        ],
        "metallicFactor": 0.0,
        "roughnessFactor": 0.6
      }
    },
    {
      "doubleSided": true,
      "name": "Material.015",
      "pbrMetallicRoughness": {
        "baseColorFactor": [
          0.800000011920929,
          0.800000011920929,
          0.800000011920929,
          1.0
        ],
        "metallicFactor": 0.0,
        "roughnessFactor": 0.6
      }
    },
    {
      "doubleSided": true,
      "name": "Material.014",
      "pbrMetallicRoughness": {
        "baseColorFactor": [
          0.0,
          0.0,
          0.0,
          1.0
        ],
        "metallicFactor": 0.0,
        "roughnessFactor": 0.6
      }
    },
    {
      "doubleSided": true,
      "name": "Material.013",
      "pbrMetallicRoughness": {
        "baseColorFactor": [
          0.4878370761871338,
          0.7388917207717896,
          0.8000000715255737,
          1.0
        ],
        "metallicFactor": 0.0,
        "roughnessFactor": 0.6
      }
    },
    {
      "doubleSided": true,
      "name": "Material.011",
      "pbrMetallicRoughness": {
        "baseColorFactor": [
          0.0,
          0.0,
          0.0,
          1.0
        ],
        "metallicFactor": 0.0,
        "roughnessFactor": 0.6
      }
    },
    {
      "doubleSided": true,
      "name": "Material.010",
      "pbrMetallicRoughness": {
        "baseColorFactor": [
          0.6529579758644104,
          0.6529579758644104,
          0.6529579758644104,
          1.0
        ],
        "metallicFactor": 0.0,
        "roughnessFactor": 0.6
      }
    }
  ],
  "meshes": [
    {
      "name": "car",
      "primitives": [
        {
          "attributes": {
            "JOINTS_0": 19,
            "NORMAL": 1,
            "POSITION": 0,
            "WEIGHTS_0": 20
          },
          "indices": 2,
          "material": 0,
          "mode": 4
        }
      ]
    },
    {
      "name": "car",
      "primitives": [
        {
          "attributes": {
            "JOINTS_0": 21,
            "NORMAL": 4,
            "POSITION": 3,
            "WEIGHTS_0": 22
          },
          "indices": 5,
          "material": 1,
          "mode": 4
        }
      ]
    },
    {
      "name": "car",
      "primitives": [
        {
          "attributes": {
            "JOINTS_0": 23,
            "NORMAL": 7,
            "POSITION": 6,
            "WEIGHTS_0": 24
          },
          "indices": 8,
          "material": 2,
          "mode": 4
        }
      ]
    },
    {
      "name": "car",
      "primitives": [
        {
          "attributes": {
            "JOINTS_0": 25,
            "NORMAL": 10,
            "POSITION": 9,
            "WEIGHTS_0": 26
          },
          "indices": 11,
          "material": 3,
          "mode": 4
        }
      ]
    },
    {
      "name": "car",
      "primitives": [
        {
          "attributes": {
            "JOINTS_0": 27,
            "NORMAL": 13,
            "POSITION": 12,
            "WEIGHTS_0": 28
          },
          "indices": 14,
          "material": 4,
          "mode": 4
        }
      ]
    },
    {
      "name": "car",
      "primitives": [
        {
          "attributes": {
            "JOINTS_0": 29,
            "NORMAL": 16,
            "POSITION": 15,
            "WEIGHTS_0": 30
          },
          "indices": 17,
          "material": 5,
          "mode": 4
        }
      ]
    }
  ],
  "nodes": [
    {
      "children": [
        1
      ],
      "matrix": [
        0.1779073029756546,
        0.0,
        0.0,
        0.0,
        0.0,
        3.950335680250707e-17,
        -0.1779073029756546,
        0.0,
        0.0,
        0.1779073029756546,
        3.950335680250707e-17,
        0.0,
        0.0,
        0.0,
        0.0,
        1.0
      ],
      "name": "Sketchfab_model"
    },
    {
      "children": [
        2,
        13,
        15
      ],
      "name": "Root"
    },
    {
      "children": [
        3,
        5,
        7,
        9,
        11
      ],
      "matrix": [
        1.0,
        0.0,
        0.0,
        0.0,
        0.0,
        1.0,
        0.0,
        0.0,
        0.0,
        0.0,
        1.0,
        0.0,
        4.121879999999999,
        -1.11259,
        3.6827,
        1.0
      ],
      "name": "Lights"
    },
    {
      "children": [
        4
      ],
      "matrix": [
        1.0,
        0.0,
        0.0,
        0.0,
        0.0,
        -0.74655,
        0.6653300000000001,
        0.0,
        0.0,
        -0.6653300000000001,
        -0.74655,
        0.0,
        0.0,
        0.0,
        0.0,
        1.0
      ],
      "name": "bottom light"
    },
    {
      "name": "bottom light"
    },
    {
      "children": [
        6
      ],
      "matrix": [
        0.21186000000000002,
        -0.5808000000000001,
        0.786,
        0.0,
        0.91949,
        0.3909600000000001,
        0.04104000000000001,
        0.0,
        -0.33113000000000004,
        0.7140200000000001,
        0.6168700000000001,
        0.0,
        0.0,
        0.0,
        0.0,
        1.0
      ],
      "name": "highlights 2"
    },
    {
      "name": "highlights 2"
    },
    {
      "children": [
        8
      ],
      "matrix": [
        0.8197800000000001,
        -0.53422,
        -0.20632,
        0.0,
        0.23079000000000002,
        0.6379100000000001,
        -0.7347200000000002,
        0.0,
        0.52412,
        0.5546900000000001,
        0.6462400000000001,
        0.0,
        0.0,
        0.0,
        0.0,
        1.0
      ],
      "name": "highlights 1"
    },
    {
      "name": "highlights 1"
    },
    {
      "children": [
        10
      ],
      "matrix": [
        0.7437200000000002,
        0.49818000000000007,
        -0.44576000000000005,
        0.0,
        0.10162000000000002,
        0.5748200000000001,
        0.8119500000000001,
        0.0,
        0.6607300000000002,
        -0.6491600000000001,
        0.3768800000000001,
        0.0,
        0.0,
        0.0,
        0.0,
        1.0
      ],
      "name": "side light"
    },
    {
      "name": "side light"
    },
    {
      "children": [
        12
      ],
      "matrix": [
        0.45817,
        -0.7697400000000002,
        -0.44450000000000006,
        0.0,
        0.7507500000000001,
        0.06739000000000002,
        0.6571400000000002,
        0.0,
        -0.47587000000000007,
        -0.6347900000000002,
        0.6087600000000001,
        0.0,
        0.0,
        0.0,
        0.0,
        1.0
      ],
      "name": "main light"
    },
    {
      "name": "main light"
    },
    {
      "children": [
        14
      ],
      "matrix": [
        -0.43861000000000006,
        -0.8978800000000001,
        0.03785000000000001,
        0.0,
        -0.6985700000000001,
        0.31415000000000004,
        -0.6428900000000002,
        0.0,
        0.56535,
        -0.3084200000000001,
        -0.7650200000000001,
        0.0,
        10.96625,
        -14.55198,
        -0.014230000000000003,
        1.0
      ],
      "name": "Sun"
    },
    {
      "name": "Sun"
    },
    {
      "children": [
        16,
        19,
        20,
        21,
        22,
        23,
        24,
        18
      ],
      "matrix": [
        1.0,
        0.0,
        0.0,
        0.0,
        0.0,
        1.0,
        0.0,
        0.0,
        0.0,
        0.0,
        1.0,
        0.0,
        0.09055000000000002,
        -1.98457,
        -0.18580000000000002,
        1.0
      ],
      "name": "Armature"
    },
    {
      "children": [
        17
      ],
      "name": "Armature_rootJoint"
    },
    {
      "name": "Bone_Armature",
      "rotation": [
        0.7071068286895752,
        0.0,
        0.0,
        0.7071068286895752
      ],
      "scale": [
        1.0,
        1.0,
        1.0
      ],
      "translation": [
        0.0,
        0.0,
        0.0
      ]
    },
    {
      "matrix": [
        0.8109400000000001,
        0.0,
        0.0,
        0.0,
        0.0,
        0.8109400000000001,
        0.0,
        0.0,
        0.0,
        0.0,
        0.8109400000000001,
        0.0,
        -0.09055000000000002,
        1.98457,
        0.18580000000000002,
        1.0
      ],
      "name": "car"
    },
    {
      "mesh": 0,
      "name": "car_0",
      "skin": 0
    },
    {
      "mesh": 1,
      "name": "car_1",
      "skin": 0
    },
    {
      "mesh": 2,
      "name": "car_2",
      "skin": 0
    },
    {
      "mesh": 3,
      "name": "car_3",
      "skin": 0
    },
    {
      "mesh": 4,
      "name": "car_4",
      "skin": 0
    },
    {
      "mesh": 5,
      "name": "car_5",
      "skin": 0
    }
  ],
  "scene": 0,
  "scenes": [
    {
      "name": "Sketchfab_Scene",
      "nodes": [
        0
      ]
    }
  ],
  "skins": [
    {
      "inverseBindMatrices": 18,
      "joints": [
        16,
        17
      ],
      "skeleton": 16
    }
  ]
}
