{
  "accessors": [
    {
      "bufferView": 2,
      "componentType": 5126,
      "count": 28406,
      "max": [
        297.9056091308594,
        12.082758903503418,
        334.3160095214844
      ],
      "min": [
        -215.68991088867188,
        -13.325761795043945,
        -459.1955261230469
      ],
      "type": "VEC3"
    },
    {
      "bufferView": 2,
      "byteOffset": 340872,
      "componentType": 5126,
      "count": 28406,
      "max": [
        1.0,
        1.0,
        1.0
      ],
      "min": [
        -1.0,
        -1.0,
        -1.0
      ],
      "type": "VEC3"
    },
    {
      "bufferView": 1,
      "componentType": 5126,
      "count": 28406,
      "max": [
        1.0,
        0.875
      ],
      "min": [
        0.0,
        0.0
      ],
      "type": "VEC2"
    },
    {
      "bufferView": 0,
      "componentType": 5125,
      "count": 45072,
      "type": "SCALAR"
    },
    {
      "bufferView": 2,
      "byteOffset": 681744,
      "componentType": 5126,
      "count": 1656,
      "max": [
        297.9056091308594,
        12.082758903503418,
        334.3160095214844
      ],
      "min": [
        -215.6890869140625,
        -8.325762748718262,
        -441.7803649902344
      ],
      "type": "VEC3"
    },
    {
      "bufferView": 2,
      "byteOffset": 701616,
      "componentType": 5126,
      "count": 1656,
      "max": [
        0.16758482158184052,
        -0.9581274390220642,
        0.2767733037471771
      ],
      "min": [
        -0.16758683323860168,
        -0.9952811598777771,
        -0.15910999476909637
      ],
      "type": "VEC3"
    },
    {
      "bufferView": 1,
      "byteOffset": 227248,
      "componentType": 5126,
      "count": 1656,
      "max": [
        0.9993990659713745,
        0.75
      ],
      "min": [
        0.0,
        0.5
      ],
      "type": "VEC2"
    },
    {
      "bufferView": 0,
      "byteOffset": 180288,
      "componentType": 5125,
      "count": 2484,
      "type": "SCALAR"
    },
    {
      "bufferView": 2,
      "byteOffset": 721488,
      "componentType": 5126,
      "count": 1648,
      "max": [
        297.9056091308594,
        12.082758903503418,
        334.3160095214844
      ],
      "min": [
        -215.68991088867188,
        -8.325762748718262,
        -441.3305969238281
      ],
      "type": "VEC3"
    },
    {
      "bufferView": 2,
      "byteOffset": 741264,
      "componentType": 5126,
      "count": 1648,
      "max": [
        0.1675911396741867,
        -0.9580644965171814,
        0.2765093147754669
      ],
      "min": [
        -0.16759493947029114,
        -0.9952811598777771,
        -0.15822961926460266
      ],
      "type": "VEC3"
    },
    {
      "bufferView": 1,
      "byteOffset": 240496,
      "componentType": 5126,
      "count": 1648,
      "max": [
        1.0,
        0.75
      ],
      "min": [
        0.0006009615608491004,
        0.5
      ],
      "type": "VEC2"
    },
    {
      "bufferView": 0,
      "byteOffset": 190224,
      "componentType": 5125,
      "count": 2472,
      "type": "SCALAR"
    },
    {
      "bufferView": 2,
      "byteOffset": 761040,
      "componentType": 5126,
      "count": 12932,
      "max": [
        295.47357177734375,
        11.216632843017578,
        332.3044738769531
      ],
      "min": [
        -213.97061157226563,
        -13.325761795043945,
        -459.1955261230469
      ],
      "type": "VEC3"
    },
    {
      "bufferView": 2,
      "byteOffset": 916224,
      "componentType": 5126,
      "count": 12932,
      "max": [
        1.0,
        0.0008744741789996624,
        1.0
      ],
      "min": [
        -1.0,
        -0.0014161915751174092,
        -1.0
      ],
      "type": "VEC3"
    },
    {
      "bufferView": 1,
      "byteOffset": 253680,
      "componentType": 5126,
      "count": 12932,
      "max": [
        1.0,
        1.0
      ],
      "min": [
        0.0,
        0.25
      ],
      "type": "VEC2"
    },
    {
      "bufferView": 0,
      "byteOffset": 200112,
      "componentType": 5125,
      "count": 19968,
      "type": "SCALAR"
    },
    {
      "bufferView": 2,
      "byteOffset": 1071408,
      "componentType": 5126,
      "count": 1054,
      "max": [
        1.0731632709503174,
        0.47625571489334106,
        1.9853098392486572
      ],
      "min": [
        -1.0731632709503174,
        -0.11372467130422592,
        -2.826361656188965
      ],
      "type": "VEC3"
    },
    {
      "bufferView": 2,
      "byteOffset": 1084056,
      "componentType": 5126,
      "count": 1054,
      "max": [
        1.0,
        1.0,
        1.0
      ],
      "min": [
        -1.0,
        -1.0,
        -1.0
      ],
      "type": "VEC3"
    },
    {
      "bufferView": 1,
      "byteOffset": 357136,
      "componentType": 5126,
      "count": 1054,
      "max": [
        1.0,
        1.0
      ],
      "min": [
        0.0,
        0.0
      ],
      "type": "VEC2"
    },
    {
      "bufferView": 0,
      "byteOffset": 279984,
      "componentType": 5125,
      "count": 2355,
      "type": "SCALAR"
    },
    {
      "bufferView": 2,
      "byteOffset": 1096704,
      "componentType": 5126,
      "count": 1800,
      "max": [
        1.066852331161499,
        0.3194505572319031,
        2.008378267288208
      ],
      "min": [
        -1.066852331161499,
        -0.3413432240486145,
        -1.958319902420044
      ],
      "type": "VEC3"
    },
    {
      "bufferView": 2,
      "byteOffset": 1118304,
      "componentType": 5126,
      "count": 1800,
      "max": [
        0.990446925163269,
        0.9915044903755188,
        0.9915046691894531
      ],
      "min": [
        -0.9904470443725586,
        -0.9915043115615845,
        -0.9915046095848083
      ],
      "type": "VEC3"
    },
    {
      "bufferView": 1,
      "byteOffset": 365568,
      "componentType": 5126,
      "count": 1800,
      "max": [
        1.0,
        1.0
      ],
      "min": [
        0.0,
        0.03806354105472565
      ],
      "type": "VEC2"
    },
    {
      "bufferView": 0,
      "byteOffset": 289404,
      "componentType": 5125,
      "count": 5376,
      "type": "SCALAR"
    },
    {
      "bufferView": 2,
      "byteOffset": 1139904,
      "componentType": 5126,
      "count": 768,
      "max": [
        1.066852331161499,
        0.24218302965164185,
        1.9311106204986572
      ],
      "min": [
        -1.066852331161499,
        -0.2640756368637085,
        -1.8810527324676514
      ],
      "type": "VEC3"
    },
    {
      "bufferView": 2,
      "byteOffset": 1149120,
      "componentType": 5126,
      "count": 768,
      "max": [
        1.0,
        1.0,
        1.0
      ],
      "min": [
        -1.0,
        -1.0,
        -1.0
      ],
      "type": "VEC3"
    },
    {
      "bufferView": 1,
      "byteOffset": 379968,
      "componentType": 5126,
      "count": 768,
      "max": [
        0.9338730573654175,
        0.43387293815612793
      ],
      "min": [
        0.0,
        0.0
      ],
      "type": "VEC2"
    },
    {
      "bufferView": 0,
      "byteOffset": 310908,
      "componentType": 5125,
      "count": 2304,
      "type": "SCALAR"
    }
  ],
  "asset": {
    "extras": {
      "author": "Kristo.V (https://sketchfab.com/krivab)",
      "license": "CC-BY-NC-4.0 (http://creativecommons.org/licenses/by-nc/4.0/)",
      "source": "https://sketchfab.com/3d-models/race-track-c-001-33km-ae5378bd1cde4f13830eec4bf71eb3bd",
      "title": "Race Track - C .001 - 3.3km"
    },
    "generator": "Sketchfab-12.66.0",
    "version": "2.0"
  },
  "bufferViews": [
    {
      "buffer": 0,
      "byteLength": 320124,
      "name": "floatBufferViews",
      "target": 34963
    },
    {
      "buffer": 0,
      "byteLength": 386112,
      "byteOffset": 320124,
      "byteStride": 8,
      "name": "floatBufferViews",
      "target": 34962
    },
    {
      "buffer": 0,
      "byteLength": 1158336,
      "byteOffset": 706236,
      "byteStride": 12,
      "name": "floatBufferViews",
      "target": 34962
    }
  ],
  "buffers": [
    {
      "byteLength": 1864572,
      "uri": "scene.bin"
    }
  ],
  "materials": [
    {
      "doubleSided": true,
      "name": "Material.005",
      "pbrMetallicRoughness": {
        "baseColorFactor": [
          0.13788420204419904,
          0.13788420204419904,
          0.13788420204419904,
          1.0
        ]
      }
    },
    {
      "doubleSided": true,
      "name": "Material.006",
      "pbrMetallicRoughness": {
        "baseColorFactor": [
          1.0,
          0.27592356247286554,
          0.27592356247286554,
          1.0
        ]
      }
    },
    {
      "doubleSided": true,
      "name": "Material.007"
    },
    {
      "doubleSided": true,
      "name": "Material.008",
      "pbrMetallicRoughness": {
        "baseColorFactor": [
          0.015876293507004053,
          0.015876293507004053,
          0.015876293507004053,
          1.0
        ]
      }
    },
    {
      "doubleSided": true,
      "name": "Material.002",
      "pbrMetallicRoughness": {
        "baseColorFactor": [
          0.61219,
          0.7999999999999999,
          0.0,
          1.0
        ],
        "metallicFactor": 0.0,
        "roughnessFactor": 0.4
      }
    },
    {
      "doubleSided": true,
      "name": "Material.003",
      "pbrMetallicRoughness": {
        "baseColorFactor": [
          0.0,
          0.0,
          0.0,
          1.0
        ],
        "metallicFactor": 0.0,
        "roughnessFactor": 0.4
      }
    },
    {
      "doubleSided": true,
      "name": "Material.004",
      "pbrMetallicRoughness": {
        "baseColorFactor": [
          0.8,
          0.8,
          0.8,
          1.0
        ],
        "metallicFactor": 0.0,
        "roughnessFactor": 0.4
      }
    }
  ],
  "meshes": [
    {
      "name": "Object_0",
      "primitives": [
        {
          "attributes": {
            "NORMAL": 1,
            "POSITION": 0,
            "TEXCOORD_0": 2
          },
          "indices": 3,
          "material": 0,
          "mode": 4
        }
      ]
    },
    {
      "name": "Object_1",
      "primitives": [
        {
          "attributes": {
            "NORMAL": 5,
            "POSITION": 4,
            "TEXCOORD_0": 6
          },
          "indices": 7,
          "material": 1,
          "mode": 4
        }
      ]
    },
    {
      "name": "Object_2",
      "primitives": [
        {
          "attributes": {
            "NORMAL": 9,
            "POSITION": 8,
            "TEXCOORD_0": 10
          },
          "indices": 11,
          "material": 2,
          "mode": 4
        }
      ]
    },
    {
      "name": "Object_3",
      "primitives": [
        {
          "attributes": {
            "NORMAL": 13,
            "POSITION": 12,
            "TEXCOORD_0": 14
          },
          "indices": 15,
          "material": 3,
          "mode": 4
        }
      ]
    },
    {
      "name": "Object_4",
      "primitives": [
        {
          "attributes": {
            "NORMAL": 17,
            "POSITION": 16,
            "TEXCOORD_0": 18
          },
          "indices": 19,
          "material": 4,
          "mode": 4
        }
      ]
    },
    {
      "name": "Object_5",
      "primitives": [
        {
          "attributes": {
            "NORMAL": 21,
            "POSITION": 20,
            "TEXCOORD_0": 22
          },
          "indices": 23,
          "material": 5,
          "mode": 4
        }
      ]
    },
    {
      "name": "Object_6",
      "primitives": [
        {
          "attributes": {
            "NORMAL": 25,
            "POSITION": 24,
            "TEXCOORD_0": 26
          },
          "indices": 27,
          "material": 6,
          "mode": 4
        }
      ]
    }
  ],
  "nodes": [
    {
      "children": [
        1
      ],
      "matrix": [
        1.0,
        0.0,
        0.0,
        0.0,
        0.0,
        2.220446049250313e-16,
        -1.0,
        0.0,
        0.0,
        1.0,
        2.220446049250313e-16,
        0.0,
        0.0,
        0.0,
        0.0,
        1.0
      ],
      "name": "Sketchfab_model"
    },
    {
      "children": [
        2
      ],
      "name": "root"
    },
    {
      "children": [
        3,
        8
      ],
      "matrix": [
        1.0,
        0.0,
        0.0,
        0.0,
        0.0,
        2.220446049250313e-16,
        1.0,
        0.0,
        0.0,
        -1.0,
        2.220446049250313e-16,
        0.0,
        0.0,
        0.0,
        0.0,
        1.0
      ],
      "name": "GLTF_SceneRootNode"
    },
    {
      "children": [
        4,
        5,
        6,
        7
      ],
      "name": "RoadCurve_0"
    },
    {
      "mesh": 0,
      "name": "Object_4"
    },
    {
      "mesh": 1,
      "name": "Object_5"
    },
    {
      "mesh": 2,
      "name": "Object_6"
    },
    {
      "mesh": 3,
      "name": "Object_7"
    },
    {
      "children": [
        9,
        10,
        11
      ],
      "matrix": [
        -0.9999999999994582,
        1.3578961078604554e-08,
        -1.0409199568817446e-06,
        0.0,
        -1.3578961078604554e-08,
        0.9996597058271853,
        0.02608586869370458,
        0.0,
        1.0409199568817446e-06,
        0.02608586869370458,
        -0.9996597058266434,
        0.0,
        104.06652069091797,
        2.615969181060791,
        210.1689910888672,
        1.0
      ],
      "name": "Cube_1"
    },
    {
      "mesh": 4,
      "name": "Object_9"
    },
    {
      "mesh": 5,
      "name": "Object_10"
    },
    {
      "mesh": 6,
      "name": "Object_11"
    }
  ],
  "scene": 0,
  "scenes": [
    {
      "name": "Sketchfab_Scene",
      "nodes": [
        0
      ]
    }
  ]
}
